<?xml version="1.0" encoding="UTF-8" standalone="no"?>
<!-- Generator: Adobe Illustrator 28.0.0, SVG Export Plug-In . SVG Version: 6.00 Build 0)  -->

<svg
   version="1.1"
   id="Layer_1"
   x="0px"
   y="0px"
   viewBox="0 0 1080 284"
   xml:space="preserve"
   sodipodi:docname="falakey-logo.svg"
   inkscape:version="1.4 (86a8ad7, 2024-10-11)"
   width="1080"
   height="284"
   xmlns:inkscape="http://www.inkscape.org/namespaces/inkscape"
   xmlns:sodipodi="http://sodipodi.sourceforge.net/DTD/sodipodi-0.dtd"
   xmlns="http://www.w3.org/2000/svg"
   xmlns:svg="http://www.w3.org/2000/svg"><defs
   id="defs8" /><sodipodi:namedview
   id="namedview8"
   pagecolor="#ffffff"
   bordercolor="#000000"
   borderopacity="0.25"
   inkscape:showpageshadow="2"
   inkscape:pageopacity="0.0"
   inkscape:pagecheckerboard="0"
   inkscape:deskcolor="#d1d1d1"
   inkscape:zoom="0.5283659"
   inkscape:cx="356.76034"
   inkscape:cy="625.51349"
   inkscape:window-width="1920"
   inkscape:window-height="1009"
   inkscape:window-x="-8"
   inkscape:window-y="-8"
   inkscape:window-maximized="1"
   inkscape:current-layer="Layer_1" />
<style
   type="text/css"
   id="style1">
	.st0{fill:#FFFFFF;}
	.st1{fill:#F27C40;}
</style>

<g
   id="g8"
   transform="matrix(1.5810724,0,0,1.5810724,-310.44302,-712.83616)">
	<path
   class="st0"
   d="m 252.67,522.5 v 48.86 c 0,3.35 0.86,6.59 2.59,9.72 1.73,3.13 4.26,5.18 7.56,6.15 h -64.73 c 3.24,-0.97 5.72,-3.08 7.5,-6.15 1.78,-3.13 2.65,-6.37 2.65,-9.72 v -102.2 c 0,-3.35 -0.86,-6.59 -2.65,-9.66 -1.79,-3.07 -4.26,-5.13 -7.5,-6.21 h 111.16 l 3.29,45.67 c -2.7,-7.67 -7.23,-14.58 -13.66,-20.78 -6.42,-6.21 -13.77,-11.17 -22.03,-14.85 -8.26,-3.72 -16.36,-5.56 -24.19,-5.56 v 60.36"
   id="path1"
   style="fill:#ffffff" />
	<path
   class="st0"
   d="m 455.22,570.98 c 0,3.35 0.86,6.59 2.59,9.72 1.73,3.13 4.21,5.18 7.45,6.15 -21.54,0 -43.08,0 -64.67,0 3.24,-0.97 5.72,-3.08 7.45,-6.15 1.73,-3.13 2.59,-6.37 2.59,-9.72 v -97.17 c 0,-3.29 -0.86,-6.53 -2.59,-9.61 -1.73,-3.13 -4.21,-5.18 -7.45,-6.15 1.24,0 2.92,0 4.97,0 7.23,0.11 15.93,-0.05 26.13,-0.59 10.2,-0.54 18.03,-2.05 23.48,-4.53 V 571 h 0.05 z"
   id="path2"
   style="fill:#ffffff" />
	<path
   class="st0"
   d="m 483.13,544.47 c 10.96,-3.29 19.11,-7.45 24.51,-12.42 5.4,-4.97 8.58,-9.99 9.56,-15.06 0.98,-5.07 0.38,-9.45 -1.84,-13.12 -2.21,-3.67 -5.4,-5.83 -9.56,-6.53 -2.32,-0.38 -4.53,-0.16 -6.64,0.59 -2.11,0.76 -3.51,2.43 -4.1,4.91 -0.16,1.24 0,2.38 0.54,3.4 0.54,1.03 1.24,2.11 2.11,3.24 1.19,1.35 2.27,3.08 3.24,5.02 0.97,2 1.4,4.53 1.35,7.67 -0.38,5.78 -2.54,10.04 -6.48,12.74 -3.94,2.7 -8.48,3.94 -13.5,3.62 -5.02,-0.27 -9.39,-2 -13.06,-5.24 -3.67,-3.19 -5.4,-7.88 -5.24,-13.98 0.54,-5.94 3.4,-10.85 8.48,-14.79 5.08,-3.94 11.23,-6.86 18.41,-8.64 7.18,-1.78 14.25,-2.54 21.27,-2.27 9.77,0.65 18.41,2.97 25.91,7.13 7.5,4.1 13.44,9.56 17.76,16.41 4.32,6.8 6.48,14.52 6.48,23.11 v 30.72 c 0,3.35 0.86,6.59 2.59,9.72 1.73,3.13 4.21,5.18 7.45,6.15 h -40 c -3.56,0 -6.32,-0.54 -8.26,-1.57 -1.94,-1.08 -3.4,-2.32 -4.32,-3.78 -0.92,-1.46 -1.46,-2.97 -1.62,-4.43 -0.16,-1.51 -0.27,-2.7 -0.27,-3.56 -2.97,4.91 -7.4,8.75 -13.17,11.5 -5.77,2.75 -11.98,4.21 -18.52,4.48 -7.61,0.11 -13.82,-1.57 -18.57,-5.02 -4.8,-3.46 -7.77,-7.77 -8.85,-12.96 -1.13,-5.02 0.11,-10.04 3.67,-15.01 3.56,-4.9 10.47,-8.9 20.67,-12.03 z m 34.77,22.25 c -0.05,-9.61 0,-30.34 0.16,-39.79 -0.05,5.34 -2.48,10.31 -4.7,15.22 -2.86,5.83 -11.28,12.31 -11.66,19.16 -0.05,5.72 3.99,10.58 10.58,10.58 2.49,0.01 5.67,-2.8 5.62,-5.17 z"
   id="path3"
   style="fill:#ffffff" />
	<path
   class="st0"
   d="m 321.45,544.47 c 10.96,-3.29 19.11,-7.45 24.51,-12.42 5.4,-4.97 8.58,-9.99 9.56,-15.06 0.97,-5.07 0.38,-9.45 -1.84,-13.12 -2.21,-3.67 -5.4,-5.83 -9.56,-6.53 -2.32,-0.38 -4.53,-0.16 -6.64,0.59 -2.11,0.76 -3.51,2.43 -4.1,4.91 -0.16,1.24 0,2.38 0.54,3.4 0.54,1.03 1.24,2.11 2.11,3.24 1.19,1.35 2.27,3.08 3.24,5.02 0.97,2 1.4,4.53 1.35,7.67 -0.38,5.78 -2.54,10.04 -6.48,12.74 -3.94,2.7 -8.48,3.94 -13.5,3.62 -5.02,-0.27 -9.39,-2 -13.06,-5.24 -3.67,-3.19 -5.4,-7.88 -5.24,-13.98 0.54,-5.94 3.4,-10.85 8.48,-14.79 5.07,-3.94 11.23,-6.86 18.41,-8.64 7.18,-1.78 14.25,-2.54 21.27,-2.27 9.77,0.65 18.41,2.97 25.91,7.13 7.5,4.1 13.44,9.56 17.76,16.41 4.32,6.8 6.48,14.52 6.48,23.11 v 30.72 c 0,3.35 0.86,6.59 2.59,9.72 1.73,3.13 4.21,5.18 7.45,6.15 h -40 c -3.56,0 -6.32,-0.54 -8.26,-1.57 -1.94,-1.08 -3.4,-2.32 -4.32,-3.78 -0.92,-1.46 -1.46,-2.97 -1.62,-4.43 -0.16,-1.51 -0.27,-2.7 -0.27,-3.56 -2.97,4.91 -7.4,8.75 -13.17,11.5 -5.77,2.75 -11.98,4.21 -18.52,4.48 -7.61,0.11 -13.82,-1.57 -18.57,-5.02 -4.8,-3.46 -7.77,-7.77 -8.85,-12.96 -1.13,-5.02 0.11,-10.04 3.67,-15.01 3.56,-4.85 10.47,-8.9 20.67,-12.03 z m 34.76,22.25 c -0.05,-9.61 0,-30.34 0.16,-39.79 -0.05,5.34 -2.48,10.31 -4.7,15.22 -2.86,5.83 -11.28,12.31 -11.66,19.16 -0.05,5.72 3.99,10.58 10.58,10.58 2.49,0.01 5.68,-2.8 5.62,-5.17 z"
   id="path4"
   style="fill:#ffffff" />
	<path
   class="st0"
   d="m 619.01,535.3 c 1.62,-1.08 3.29,-2 4.97,-2.92 l 14.2,-10.64 c 2.86,-2.27 5.07,-5.4 6.64,-9.45 1.57,-4.05 1.67,-7.88 0.32,-11.55 -1.35,-3.62 -4.8,-6.05 -10.42,-7.13 h 50.15 l -48.75,34.5 c 6.8,-1.46 13.33,-1.3 19.6,0.43 6.32,1.73 11.5,5.24 15.66,10.53 4.16,5.29 6.37,12.63 6.69,21.97 l 0.11,9.99 c 0,3.35 0.86,6.59 2.59,9.72 1.73,3.13 4.21,5.18 7.45,6.15 H 652.7 c -4.59,0 -8.21,-0.97 -10.8,-2.86 -2.59,-1.89 -4.48,-4.16 -5.67,-6.8 -1.19,-2.65 -1.89,-5.24 -2.21,-7.83 -0.27,-2.54 -0.43,-4.53 -0.43,-5.88 l -0.11,-9.72 c -0.16,-5.94 -1.89,-9.88 -5.02,-11.98 -3.19,-2.05 -6.37,-2.65 -9.56,-1.78 v 30.93 c 0,3.35 0.86,6.59 2.65,9.72 1.78,3.13 4.26,5.18 7.5,6.15 h -64.57 c 3.29,-0.97 5.83,-3.08 7.56,-6.15 1.73,-3.13 2.59,-6.37 2.59,-9.72 v -97.17 c 0,-3.29 -0.86,-6.53 -2.59,-9.61 -1.73,-3.13 -4.26,-5.18 -7.56,-6.15 1.46,0 2.92,0 4.37,0 8.15,0.11 16.79,-0.05 25.86,-0.59 9.07,-0.54 17.17,-2.05 24.29,-4.53 v 82.37 z"
   id="path5"
   style="fill:#ffffff" />
	<path
   class="st0"
   d="m 748.58,496.43 c 6.91,1.84 12.85,4.64 17.82,8.48 4.97,3.78 8.04,8.64 9.18,14.47 0.81,5.61 -0.38,10.1 -3.62,13.39 -3.19,3.35 -7.45,5.72 -12.74,7.18 -5.29,1.46 -10.69,2.16 -16.25,2.11 -5.56,-0.05 -10.26,-0.7 -14.2,-1.94 3.78,4.97 8.75,8.75 14.9,11.28 6.15,2.53 12.47,3.4 18.95,2.59 6.53,-0.81 12.15,-3.72 16.95,-8.8 -1.08,7.94 -3.99,15.01 -8.8,21.27 -4.8,6.26 -10.96,11.23 -18.57,14.95 -7.56,3.72 -15.87,5.56 -24.89,5.56 -9.66,0 -18.46,-2.11 -26.34,-6.32 -7.94,-4.21 -14.25,-9.83 -18.95,-16.84 -4.75,-7.02 -7.13,-14.85 -7.13,-23.43 0,-8.58 2.43,-16.41 7.23,-23.43 4.8,-7.02 11.28,-12.63 19.27,-16.84 8.04,-4.21 16.9,-6.32 26.51,-6.32 6.91,-0.12 13.77,0.8 20.68,2.64 z m -25.59,6.96 c -1.35,3.94 -2.16,8.48 -2.38,13.44 -0.22,5.02 0.27,9.39 1.46,13.12 1.24,3.72 3.24,5.56 6.05,5.51 2.81,-0.43 4.91,-2.54 6.32,-6.37 1.4,-3.83 2.11,-8.15 2.05,-13.01 -0.05,-4.86 -0.76,-9.18 -2.11,-12.96 -1.35,-3.78 -3.35,-5.67 -5.99,-5.67 -2.22,0 -4,2 -5.4,5.94 z"
   id="path6"
   style="fill:#ffffff" />
	<path
   class="st0"
   d="m 818.16,499.72 c -0.16,3.08 0.54,6.32 2.27,9.83 l 14.25,28.72 c 3.29,-8.75 9.5,-19.87 9.66,-25.26 0.16,-5.4 -0.76,-9.61 -2.65,-12.63 -1.94,-2.97 -4.37,-5.24 -7.4,-6.75 h 44.54 c -5.94,1.35 -11.28,4.75 -16.03,10.1 -4.75,5.34 -8.75,11.07 -11.98,17.11 -3.24,6.05 -5.56,10.74 -7.02,14.09 -0.32,0.76 -0.59,1.35 -0.86,1.89 l -33.74,72.23 c -3.24,7.45 -7.23,13.17 -11.93,17.11 -4.7,3.94 -10.96,5.18 -18.84,3.72 -6.64,-1.51 -11.5,-4.43 -14.52,-8.8 -3.02,-4.37 -4.32,-9.07 -3.94,-14.14 0.38,-5.07 2.38,-9.45 5.88,-13.06 3.51,-3.62 8.48,-5.45 14.79,-5.4 5.13,0.27 9.5,1.89 13.17,4.97 3.67,3.08 5.61,6.75 5.88,11.12 0.05,1.51 0.49,2.48 1.24,2.97 0.76,0.49 1.62,0.54 2.48,0.22 0.86,-0.43 1.67,-1.24 2.38,-2.48 0.7,-1.19 1.3,-2.38 1.73,-3.51 0.11,-0.32 0.27,-0.59 0.38,-0.86 l 6.53,-14.04 -39.03,-77.36 c -1.73,-3.51 -4.26,-6.75 -7.56,-9.83 -3.3,-3.08 -6.8,-5.07 -10.58,-6.05 h 65.21 c -2.63,1.02 -4.14,3.01 -4.31,6.09 z"
   id="path7"
   style="fill:#ffffff" />
	<path
   class="st1"
   d="m 277.83,549.33 c -1.35,-12.36 -8.85,-21.65 -22.08,-27.15 12.96,-5.45 20.51,-14.52 22.08,-26.67 1.57,12.15 9.12,21.22 22.08,26.67 -13.23,5.5 -20.73,14.74 -22.08,27.15 z"
   id="path8"
   style="fill:#f27c40" />
</g></svg>
