<?xml version="1.0" encoding="utf-8"?>
<!-- Generator: Adobe Illustrator 28.0.0, SVG Export Plug-In . SVG Version: 6.00 Build 0)  -->
<svg version="1.1" id="Layer_1" xmlns="http://www.w3.org/2000/svg" xmlns:xlink="http://www.w3.org/1999/xlink" x="0px" y="0px"
	 viewBox="0 0 954.1 248.9" style="enable-background:new 0 0 954.1 248.9;" xml:space="preserve">
<style type="text/css">
	.st0{fill:#FFFFFF;}
	.st1{fill:#F27C40;}
</style>
<path class="st0" d="M76.5,97.5V166c0,4.7,1.2,9.2,3.6,13.6c2.4,4.4,6,7.3,10.6,8.6H0c4.5-1.4,8-4.3,10.5-8.6
	c2.5-4.4,3.7-8.9,3.7-13.6V22.8c0-4.7-1.2-9.2-3.7-13.5C8,4.9,4.5,2,0,0.5h155.8l4.6,64c-3.8-10.7-10.1-20.4-19.1-29.1
	c-9-8.7-19.3-15.7-30.9-20.8C98.8,9.4,87.5,6.8,76.5,6.8v84.6"/>
<path class="st0" d="M360.4,165.5c0,4.7,1.2,9.2,3.6,13.6c2.4,4.4,5.9,7.3,10.4,8.6h-90.6c4.5-1.4,8-4.3,10.4-8.6
	c2.4-4.4,3.6-8.9,3.6-13.6V29.3c0-4.6-1.2-9.2-3.6-13.5c-2.4-4.4-5.9-7.3-10.4-8.6h7c10.1,0.1,22.3-0.1,36.6-0.8
	c14.3-0.8,25.3-2.9,32.9-6.4L360.4,165.5L360.4,165.5z"/>
<path class="st0" d="M399.5,128.3c15.4-4.6,26.8-10.4,34.3-17.4c7.6-7,12-14,13.4-21.1c1.4-7.1,0.5-13.2-2.6-18.4
	c-3.1-5.1-7.6-8.2-13.4-9.2c-3.3-0.5-6.4-0.2-9.3,0.8c-3,1.1-4.9,3.4-5.8,6.9c-0.2,1.7,0,3.3,0.8,4.8c0.8,1.4,1.7,2.9,2.9,4.5
	c1.7,1.9,3.2,4.3,4.5,7c1.4,2.8,2,6.4,1.9,10.7c-0.5,8.1-3.6,14.1-9.1,17.9c-5.5,3.8-11.9,5.5-18.9,5.1c-7-0.4-13.2-2.8-18.3-7.3
	c-5.1-4.5-7.6-11-7.3-19.6c0.8-8.3,4.8-15.2,11.9-20.7c7.1-5.5,15.7-9.6,25.8-12.1c10.1-2.5,20-3.6,29.8-3.2
	c13.7,0.9,25.8,4.2,36.3,10c10.5,5.8,18.8,13.4,24.9,23c6.1,9.5,9.1,20.4,9.1,32.4v43.1c0,4.7,1.2,9.2,3.6,13.6
	c2.4,4.4,5.9,7.3,10.4,8.6h-56.1c-5,0-8.9-0.8-11.6-2.2c-2.7-1.5-4.8-3.3-6-5.3c-1.3-2-2-4.2-2.3-6.2c-0.2-2.1-0.4-3.8-0.4-5
	c-4.2,6.9-10.4,12.3-18.5,16.1c-8.1,3.9-16.8,5.9-26,6.3c-10.7,0.2-19.4-2.2-26-7c-6.7-4.8-10.9-10.9-12.4-18.2
	c-1.6-7,0.1-14.1,5.1-21C375.5,138.3,385.2,132.7,399.5,128.3 M448.2,159.5c-0.1-13.5,0-42.5,0.2-55.8c-0.1,7.5-3.5,14.4-6.6,21.3
	c-4,8.2-15.8,17.2-16.3,26.9c-0.1,8,5.6,14.8,14.8,14.8C443.8,166.8,448.3,162.8,448.2,159.5"/>
<path class="st0" d="M172.9,128.3c15.4-4.6,26.8-10.4,34.3-17.4c7.6-7,12-14,13.4-21.1c1.4-7.1,0.5-13.2-2.6-18.4
	c-3.1-5.1-7.6-8.2-13.4-9.2c-3.3-0.5-6.4-0.2-9.3,0.8c-3,1.1-4.9,3.4-5.8,6.9c-0.2,1.7,0,3.3,0.8,4.8c0.8,1.4,1.7,2.9,2.9,4.5
	c1.7,1.9,3.2,4.3,4.5,7c1.4,2.8,2,6.4,1.9,10.7c-0.5,8.1-3.6,14.1-9.1,17.9c-5.5,3.8-11.9,5.5-18.9,5.1c-7-0.4-13.2-2.8-18.3-7.3
	c-5.1-4.5-7.6-11-7.3-19.6c0.8-8.3,4.8-15.2,11.9-20.7c7.1-5.5,15.7-9.6,25.8-12.1c10.1-2.5,20-3.6,29.8-3.2
	c13.7,0.9,25.8,4.2,36.3,10c10.5,5.8,18.8,13.4,24.9,23c6.1,9.5,9.1,20.4,9.1,32.4v43.1c0,4.7,1.2,9.2,3.6,13.6
	c2.4,4.4,5.9,7.3,10.4,8.6h-56.1c-5,0-8.9-0.8-11.6-2.2c-2.7-1.5-4.8-3.3-6.1-5.3c-1.3-2-2-4.2-2.3-6.2c-0.2-2.1-0.4-3.8-0.4-5
	c-4.2,6.9-10.4,12.3-18.5,16.1c-8.1,3.9-16.8,5.9-26,6.3c-10.7,0.2-19.4-2.2-26-7c-6.7-4.8-10.9-10.9-12.4-18.2
	c-1.6-7,0.1-14.1,5.1-21C148.9,138.4,158.6,132.7,172.9,128.3 M221.6,159.5c-0.1-13.5,0-42.5,0.2-55.8c-0.1,7.5-3.5,14.4-6.6,21.3
	c-4,8.2-15.8,17.2-16.3,26.9c-0.1,8,5.6,14.8,14.8,14.8C217.2,166.8,221.7,162.8,221.6,159.5"/>
<path class="st0" d="M590,115.5c2.3-1.5,4.6-2.8,7-4.1l19.9-14.9c4-3.2,7.1-7.6,9.3-13.2c2.2-5.7,2.3-11,0.5-16.2
	c-1.9-5.1-6.7-8.5-14.6-10h70.3l-68.3,48.4c9.5-2,18.7-1.8,27.5,0.6c8.9,2.4,16.1,7.3,21.9,14.8c5.8,7.4,8.9,17.7,9.4,30.8l0.1,14
	c0,4.7,1.2,9.2,3.6,13.6c2.4,4.4,5.9,7.3,10.4,8.6h-49.8c-6.4,0-11.5-1.4-15.1-4c-3.6-2.6-6.3-5.8-7.9-9.5c-1.7-3.7-2.7-7.3-3.1-11
	c-0.4-3.6-0.6-6.4-0.6-8.2l-0.1-13.6c-0.2-8.3-2.7-13.8-7-16.8c-4.5-2.9-8.9-3.7-13.4-2.5v43.4c0,4.7,1.2,9.2,3.7,13.6
	c2.5,4.4,6,7.3,10.5,8.6h-90.5c4.6-1.4,8.2-4.3,10.6-8.6c2.4-4.4,3.6-8.9,3.6-13.6V29.3c0-4.6-1.2-9.2-3.6-13.5
	c-2.4-4.4-6-7.3-10.6-8.6h6.1c11.4,0.1,23.5-0.1,36.2-0.8C568.6,5.6,580,3.5,590,0V115.5z"/>
<path class="st0" d="M771.6,61c9.7,2.6,18,6.5,25,11.9c7,5.3,11.3,12.1,12.9,20.3c1.1,7.9-0.5,14.2-5.1,18.8
	c-4.5,4.7-10.4,8-17.9,10.1c-7.4,2-15,3-22.8,3c-7.8-0.1-14.4-1-19.9-2.7c5.3,7,12.3,12.3,20.9,15.8c8.6,3.6,17.5,4.8,26.6,3.6
	c9.2-1.1,17-5.2,23.8-12.3c-1.5,11.1-5.6,21-12.3,29.8c-6.7,8.8-15.4,15.7-26,21c-10.6,5.2-22.2,7.8-34.9,7.8
	c-13.5,0-25.9-3-36.9-8.9c-11.1-5.9-20-13.8-26.6-23.6c-6.7-9.8-10-20.8-10-32.8c0-12,3.4-23,10.1-32.8c6.7-9.8,15.8-17.7,27-23.6
	c11.3-5.9,23.7-8.9,37.1-8.9C752.3,57.1,761.9,58.4,771.6,61 M735.7,70.7c-1.9,5.5-3,11.9-3.3,18.8c-0.3,7,0.4,13.2,2,18.4
	c1.7,5.2,4.5,7.8,8.5,7.7c3.9-0.6,6.9-3.6,8.9-8.9c2-5.4,3-11.4,2.9-18.2c-0.1-6.8-1.1-12.9-2.9-18.2c-1.9-5.3-4.7-7.9-8.4-7.9
	C740.2,62.4,737.7,65.2,735.7,70.7"/>
<path class="st0" d="M869.1,65.6c-0.2,4.3,0.8,8.9,3.2,13.8l20,40.3c4.6-12.3,13.3-27.8,13.5-35.4c0.2-7.6-1.1-13.5-3.7-17.7
	c-2.7-4.2-6.1-7.3-10.4-9.5h62.4c-8.3,1.9-15.8,6.7-22.5,14.1c-6.7,7.5-12.3,15.5-16.8,24c-4.5,8.5-7.8,15.1-9.8,19.8
	c-0.5,1.1-0.8,1.9-1.2,2.6l-47.3,101.2c-4.5,10.4-10.1,18.5-16.7,24c-6.6,5.5-15.4,7.3-26.4,5.2c-9.3-2.1-16.1-6.2-20.4-12.3
	c-4.2-6.1-6.1-12.7-5.5-19.8c0.5-7.1,3.3-13.2,8.2-18.3c4.9-5.1,11.9-7.6,20.7-7.6c7.2,0.4,13.3,2.7,18.5,7
	c5.1,4.3,7.9,9.5,8.2,15.6c0.1,2.1,0.7,3.5,1.7,4.2c1.1,0.7,2.3,0.8,3.5,0.3c1.2-0.6,2.3-1.7,3.3-3.5c1-1.7,1.8-3.3,2.4-4.9
	c0.2-0.5,0.4-0.8,0.5-1.2l9.2-19.7L809.2,79.3c-2.4-4.9-6-9.5-10.6-13.8c-4.6-4.3-9.5-7.1-14.8-8.5h91.4
	C871.4,58.5,869.3,61.3,869.1,65.6"/>
<path class="st1" d="M111.8,135.1c-1.9-17.3-12.4-30.3-30.9-38.1c18.2-7.6,28.8-20.4,30.9-37.4c2.2,17,12.8,29.7,30.9,37.4
	C124.2,104.8,113.6,117.7,111.8,135.1"/>
<g>
	<path class="st0" d="M777.1,244.4h-87c-3.3,0-6.1-2.8-6.1-6.1v-33.4c0-3.3,2.8-6.1,6.1-6.1h86.8c3.3,0,6.1,2.8,6.1,6.1v33.4
		C783.2,241.7,780.4,244.4,777.1,244.4z M690.1,201.2c-2.2,0-3.7,1.8-3.7,3.7v33.4c0,2.2,1.8,3.7,3.7,3.7h86.8
		c2.2,0,3.7-1.8,3.7-3.7v-33.4c0-2.2-1.8-3.7-3.7-3.7C776.9,201.2,690.1,201.2,690.1,201.2z"/>
</g>
<g>
	<g>
		<path class="st0" d="M697.8,232v-21.4h8.9c2,0,3.5,0.6,4.7,1.6c1.2,1,1.8,2.4,1.8,3.9c0,2.2-1,3.7-3,4.7c2.6,1,3.9,2.8,3.9,5.3
			c0,1.8-0.6,3.1-1.6,4.3c-1.2,1.2-2.8,1.8-4.7,1.8h-10V232z M700.5,219.9h5.3c1.4,0,2.4-0.2,3.1-0.8c0.8-0.6,1.2-1.4,1.2-2.6
			s-0.4-2.2-1.2-2.8c-0.6-0.6-1.8-0.8-3.1-0.8h-5.3V219.9z M700.5,229.7h6.7c1.2,0,2.2-0.4,3-1c0.6-0.6,1-1.6,1-2.8
			c0-1.2-0.4-2.2-1-2.8c-0.6-0.6-1.6-1-3-1h-6.7V229.7z"/>
		<path class="st0" d="M720.4,222.2v7.3h12.8v2.4h-15.3v-21.2h15v2.4h-12.2v6.9h11.8v2.4H720.4z"/>
		<path class="st0" d="M745.2,213V232h-2.8V213h-7.1v-2.4h16.9v2.4H745.2z"/>
		<path class="st0" d="M766.8,225.6h-8.3l-2.4,6.5h-3l7.7-21.4h3.7l7.5,21.4h-3L766.8,225.6z M766,223.4l-3.3-9.8l-3.5,9.8H766z"/>
	</g>
</g>
</svg>
