<?xml version="1.0" encoding="utf-8"?>
<!-- Generator: Adobe Illustrator 28.0.0, SVG Export Plug-In . SVG Version: 6.00 Build 0)  -->
<svg version="1.1" id="Layer_1" xmlns="http://www.w3.org/2000/svg" xmlns:xlink="http://www.w3.org/1999/xlink" x="0px" y="0px"
	 viewBox="0 0 931.2 389.6" style="enable-background:new 0 0 931.2 389.6;" xml:space="preserve">
<style type="text/css">
	.st0{fill:#F27C40;}
	.st1{fill:#FFFFFF;}
	.st2{font-family:'GEHili-Book';}
	.st3{font-size:85.4052px;}
	.st4{fill:none;stroke:#FFFFFF;stroke-width:2;stroke-miterlimit:10;}
</style>
<g>
	<g>
		<path class="st0" d="M875.6,74.9c-1.9-17.2-12.3-30.1-30.7-37.8c18-7.6,28.5-20.2,30.7-37.1c2.2,16.9,12.7,29.5,30.7,37.1
			C887.9,44.8,877.5,57.6,875.6,74.9L875.6,74.9z"/>
	</g>
	<path class="st1" d="M79.3,349c-5.6,0-10.5,2-14.5,6c-4,4-6,8.8-6,14.5c0,5.4,2,10.2,6,14.2c4.1,4.1,7.8,5.7,13.3,5.7
		c6.1,0,11.7-2.1,15.4-5.7c4-4,6-8.8,6-14.2c0-5.6-2-10.5-6-14.5C89.5,351,84.7,349,79.3,349z"/>
	<path class="st1" d="M131.1,349c-5.6,0-10.5,2-14.5,6c-4,4-6,8.8-6,14.5c0,5.4,2,10.2,6,14.2c3.8,3.8,7.1,6,13,6
		c4.7,0,11.2-1.6,15.6-6c4-4,6-8.8,6-14.2c0-5.6-2-10.5-6-14.5C141.3,351,136.5,349,131.1,349z"/>
	<path class="st1" d="M29.9,182.1l0.1,1.6c0,0,4.1-9.5-5.2-9.1c-7.4,0.3,6.3-2.9,6.3-2.9"/>
	<path class="st1" d="M864.4,87.3c-0.2,0-0.5,0-0.7,0c-51.6,0-70.7,30.9-64,66.5c5,26.7,28.3,46.2,28.2,46.2h-3.8h-67.4h-67.2
		c-6.5,0-11.3-1.4-14.4-4.2c-1.8-1.7-4.2-4.7-4.2-11.8V56.4h-0.1V2.3l-13.5,5.1c-0.1,0.1-13.8,5.1-29.7,4.1l-17.1-1l7.8,11.8
		c1.7,2.6,2.8,5.6,3,8.7c0.2,2.2,0.3,4.5,0.3,5.7v154.5c-0.9,2.2-2.1,3.5-3.1,4.4l-0.2,0.2c-3.2,2.9-8,4.4-14.5,4.4h-12.2h-17.5
		c-6.5,0-11.4-1.4-14.6-4.3c-1.8-1.7-4.3-4.7-4.3-11.8v-10.4c0-22.7-5.1-44.5-21.6-58.6c-31.4-27-71.8-13.6-100.4,0.8l4.4-6.1
		l53.5-67.5l8.3-11.1l-13.3-3.9c-0.1,0-13.6-4.1-25.4-14L448.4,2.4L447,15.4c-0.5,4.6-2,9-4.6,12.9c-0.2,0.3-0.4,0.6-0.6,0.9
		l-7.5,10l0,0l-9.5,12.7l-1.7,2.3l0,0l-46.5,62.5l17.2,38.7l10.2-10.6c9.6-9.9,19.8-16.7,30.4-20.2c5.5-1.7,10.5-2.9,14.7-3.4
		l0.3-0.1c3.2-0.5,6.5-0.8,9.8-0.8c1.4,0,2.6,0.1,3.7,0.2l0.6,0.1l0.6,0c11.5,0.2,20.7,3.7,28.3,10.7c10.2,9.3,15.1,22.8,15.1,41.1
		c0,7.3-1.8,13.2-5.5,18l-0.1,0.2c-4.9,6.6-11.9,9.6-22.1,9.6H216.3h-25.8h-26.2c-10.5,0-15.9-0.6-18.6-1.1c-3.4-0.6-6.9-2-10.3-3.9
		l-14.9-8.5v48.8l3.3,3c7.5,6.7,20.3,9.8,40.1,9.8h1.2c-2.6,7.8-7.9,13.8-13.6,20.3c-22.9,26.3-67.1,32.9-88.7,27.4
		c-41.5-10.6-59.4-45.1-54.4-87.6c0.1-0.7,0.2-1.3,0.2-1.9c3.5-25.1,22-31.1,22-31.1c-2.6,9.9,3,21.8,3,21.8c3.4,7.3,8.9,13,16.5,17
		l0.4,0.2c5.5,2.6,11.1,4,16.4,4c3.7,0,7.4-0.7,10.8-2c8.1-3.1,14.3-8.5,18.6-16c4.2-7.5,5.6-15.7,4.1-24.4
		c-1.5-8.9-6.7-16.9-15.4-23.6l-0.3-0.2c-10.5-7.5-21.1-9.9-31.4-7.2c-8.7,2.3-16.8,8.2-23.4,13.7l-0.1,0l-2.7,2.4
		c-1.4,1.2-2.7,2.5-4,3.9l-0.4,0.1l-0.3,0.6C16.3,171.9,11,180,6.9,189.5l-0.2,0.4C2.3,201.4,0,213.9,0,227.2
		c0.2,22.6,6,42.4,17.2,59c10.1,14.7,23.9,26.2,41.1,34.2c15.6,7.1,32.4,10.7,50,10.7c24.3,0,46-6.3,64.7-18.8
		c22.9-15.2,36.8-36.8,41.5-64.2h267c19.4,0,35.5-4.9,47.8-14.5c9.7,8.1,22.4,12.9,37.9,14.1v0.4h8.9h15.6h10
		c18.5,0,33.7-4.4,45.2-13.2c11.2,8.8,26.4,13.2,45.1,13.2h64.7h16.5h75.3c22.8,0,40.5-6.5,52.5-19.3c11-11.8,16.6-28.2,16.6-48.9
		v-48.8c0-10.5,0.6-22,1.1-24.7c0.3-1.5,0.7-3.1,1.3-4.7c1.2-3.2,3.1-6.1,5.4-8.6l5.7-5.9H864.4z M433,116.4L433,116.4
		c0.2,0,0.4,0,0.5,0C433.4,116.4,433.3,116.4,433,116.4z M874.9,192.3c-27-12.3-42.6-41.1-30.3-67.6c4.4-8.4,22.1-11.1,26.9-2.1
		c2.2,3.9,3.3,11.6,3.3,22.9V192.3z"/>
</g>
<g>
	<text transform="matrix(1 0 0 1 159.0061 151.0588)" class="st1 st2 st3">اـتـيب</text>
</g>
<path class="st4" d="M312.4,177H155.9c-14.5,0-26.3-11.8-26.3-26.3v-46c0-14.5,11.8-26.3,26.3-26.3h156.5
	c14.5,0,26.3,11.8,26.3,26.3v46C338.8,165.2,327,177,312.4,177z"/>
</svg>
