<svg xmlns="http://www.w3.org/2000/svg" xmlns:xlink="http://www.w3.org/1999/xlink" id="Layer_1" x="0px" y="0px" viewBox="0 0 1600 80" style="enable-background:new 0 0 1600 80;" xml:space="preserve"><style type="text/css">	.st0{fill:#F0E6FF;}	.st1{clip-path:url(#SVGID_00000007417107361654909810000012945806284800151479_);}	.st2{clip-path:url(#SVGID_00000116921463720574221460000003966029529307150767_);fill:none;}	.st3{clip-path:url(#SVGID_00000116921463720574221460000003966029529307150767_);fill:#F27C40;}	.st4{clip-path:url(#SVGID_00000116921463720574221460000003966029529307150767_);fill:#B219B2;}			.st5{clip-path:url(#SVGID_00000116921463720574221460000003966029529307150767_);fill:none;stroke:#F27C40;stroke-width:1.2428;stroke-miterlimit:10;}			.st6{clip-path:url(#SVGID_00000116921463720574221460000003966029529307150767_);fill:none;stroke:#F27C40;stroke-width:0.806;stroke-miterlimit:10;}	.st7{clip-path:url(#SVGID_00000116921463720574221460000003966029529307150767_);}			.st8{clip-path:url(#SVGID_00000005228165449357673870000014664097437521358745_);fill:none;stroke:#F27C40;stroke-width:0.6223;stroke-miterlimit:10;}</style><rect class="st0" width="1600" height="80"></rect><g>	<defs>		<rect id="SVGID_1_" width="1600" height="80"></rect>	</defs>	<defs>		<rect id="SVGID_00000063600160428480005250000000269005890316614589_" width="1600" height="80"></rect>	</defs>	<clipPath id="SVGID_00000052085874841154506550000009381999972070975408_">		<use xlink:href="#SVGID_1_" style="overflow:visible;"></use>	</clipPath>			<clipPath id="SVGID_00000180366141342906931030000018358706912922443454_" style="clip-path:url(#SVGID_00000052085874841154506550000009381999972070975408_);">		<use xlink:href="#SVGID_00000063600160428480005250000000269005890316614589_" style="overflow:visible;"></use>	</clipPath>	<rect style="clip-path:url(#SVGID_00000180366141342906931030000018358706912922443454_);fill:none;" width="1600" height="80"></rect>	<path style="clip-path:url(#SVGID_00000180366141342906931030000018358706912922443454_);fill:#F27C40;" d="M254.56,14.84  c3.37,27.35,18.6,47.65,44.6,60.02c0.09,0.04,0.09,0.16,0,0.2c-26.41,12.47-41.61,33.46-44.58,61.26c-0.01,0.13-0.19,0.13-0.2,0  c-2.91-27.89-18.13-48.76-44.6-61.26c-0.09-0.04-0.09-0.16,0-0.2c25.94-12.34,41.15-32.76,44.57-60.02  C254.37,14.71,254.54,14.71,254.56,14.84z"></path>	<path style="clip-path:url(#SVGID_00000180366141342906931030000018358706912922443454_);fill:#B219B2;" d="M343.87-20.32  c1.36,11.02,7.49,19.2,17.97,24.18c0.04,0.02,0.04,0.06,0,0.08c-10.64,5.02-16.76,13.48-17.96,24.68c0,0.05-0.08,0.05-0.08,0  c-1.17-11.24-7.3-19.64-17.97-24.68c-0.04-0.02-0.04-0.06,0-0.08c10.45-4.97,16.58-13.2,17.96-24.18  C343.79-20.37,343.86-20.37,343.87-20.32z"></path>	<path style="clip-path:url(#SVGID_00000180366141342906931030000018358706912922443454_);fill:#B219B2;" d="M1272.04,49.3  c1.36,11.02,7.49,19.2,17.97,24.18c0.04,0.02,0.04,0.06,0,0.08c-10.64,5.02-16.76,13.48-17.96,24.68c0,0.05-0.08,0.05-0.08,0  c-1.17-11.24-7.3-19.64-17.97-24.68c-0.04-0.02-0.04-0.06,0-0.08c10.45-4.97,16.58-13.2,17.96-24.18  C1271.97,49.25,1272.04,49.25,1272.04,49.3z"></path>	<rect style="clip-path:url(#SVGID_00000180366141342906931030000018358706912922443454_);fill:none;" width="1600" height="80"></rect>			<path style="clip-path:url(#SVGID_00000180366141342906931030000018358706912922443454_);fill:none;stroke:#F27C40;stroke-width:1.2428;stroke-miterlimit:10;" d="  M297.54,18.62c1.14,7.12,5.25,12.45,12.09,15.78c0.13,0.06,0.13,0.23,0,0.29c-6.91,3.35-11.02,8.81-12.08,16  c-0.03,0.2-0.28,0.2-0.31,0c-1.05-7.21-5.16-12.65-12.09-16c-0.13-0.06-0.13-0.23,0-0.29c6.82-3.32,10.93-8.68,12.08-15.78  C297.26,18.43,297.5,18.43,297.54,18.62z"></path>			<path style="clip-path:url(#SVGID_00000180366141342906931030000018358706912922443454_);fill:none;stroke:#F27C40;stroke-width:0.806;stroke-miterlimit:10;" d="  M213.99,9.95c0.38,2.37,1.75,4.15,4.03,5.25c0.04,0.02,0.04,0.08,0,0.1c-2.3,1.12-3.67,2.93-4.02,5.33c-0.01,0.07-0.09,0.07-0.1,0  c-0.35-2.4-1.72-4.21-4.03-5.33c-0.04-0.02-0.04-0.08,0-0.1c2.27-1.11,3.64-2.89,4.02-5.25C213.9,9.89,213.98,9.89,213.99,9.95z"></path>			<path style="clip-path:url(#SVGID_00000180366141342906931030000018358706912922443454_);fill:none;stroke:#F27C40;stroke-width:0.806;stroke-miterlimit:10;" d="  M1390.98,49.39c0.38,2.37,1.75,4.15,4.03,5.25c0.04,0.02,0.04,0.08,0,0.1c-2.3,1.12-3.67,2.93-4.02,5.33  c-0.01,0.07-0.09,0.07-0.1,0c-0.35-2.4-1.72-4.21-4.03-5.33c-0.04-0.02-0.04-0.08,0-0.1c2.27-1.11,3.64-2.89,4.02-5.25  C1390.88,49.32,1390.96,49.32,1390.98,49.39z"></path>	<rect style="clip-path:url(#SVGID_00000180366141342906931030000018358706912922443454_);fill:none;" width="1600" height="80"></rect>			<path style="clip-path:url(#SVGID_00000180366141342906931030000018358706912922443454_);fill:none;stroke:#F27C40;stroke-width:1.2428;stroke-miterlimit:10;" d="  M1308.39,33.67c1.14,7.12,5.25,12.45,12.09,15.78c0.13,0.06,0.13,0.23,0,0.29c-6.91,3.35-11.02,8.81-12.08,16  c-0.03,0.2-0.28,0.2-0.31,0c-1.05-7.21-5.16-12.65-12.09-16c-0.13-0.06-0.13-0.23,0-0.29c6.82-3.32,10.93-8.68,12.08-15.78  C1308.11,33.47,1308.36,33.48,1308.39,33.67z"></path>	<rect style="clip-path:url(#SVGID_00000180366141342906931030000018358706912922443454_);fill:none;" width="1600" height="80"></rect>	<path style="clip-path:url(#SVGID_00000180366141342906931030000018358706912922443454_);fill:#F27C40;" d="M1348.39-49.35  c3.17,25.71,17.48,44.79,41.92,56.41c0.08,0.04,0.08,0.15,0,0.19c-24.82,11.72-39.11,31.45-41.9,57.58c-0.01,0.13-0.18,0.13-0.19,0  c-2.74-26.21-17.04-45.83-41.92-57.58c-0.08-0.04-0.08-0.15,0-0.19c24.38-11.6,38.68-30.79,41.9-56.41  C1348.21-49.48,1348.37-49.48,1348.39-49.35z"></path>	<g style="clip-path:url(#SVGID_00000180366141342906931030000018358706912922443454_);">		<defs>			<rect id="SVGID_00000080897399037954256200000017879494489537335993_" width="1600" height="80"></rect>		</defs>		<clipPath id="SVGID_00000048481373653953492120000004792848772496598404_">			<use xlink:href="#SVGID_00000080897399037954256200000017879494489537335993_" style="overflow:visible;"></use>		</clipPath>					<path style="clip-path:url(#SVGID_00000048481373653953492120000004792848772496598404_);fill:none;stroke:#F27C40;stroke-width:0.6223;stroke-miterlimit:10;" d="   M1251.2-65.03c0.57,3.56,2.63,6.23,6.06,7.9c0.06,0.03,0.06,0.12,0,0.15c-3.46,1.68-5.52,4.41-6.05,8.01   c-0.01,0.1-0.14,0.1-0.15,0c-0.53-3.61-2.58-6.33-6.05-8.01c-0.06-0.03-0.06-0.12,0-0.15c3.42-1.66,5.48-4.35,6.05-7.9   C1251.06-65.13,1251.18-65.13,1251.2-65.03z"></path>	</g></g></svg>