<?xml version="1.0" encoding="UTF-8" standalone="no"?>
<svg
   data-name="Layer 1"
   width="600"
   height="600"
   viewBox="0 0 600.00001 599.99998"
   version="1.1"
   id="svg108"
   sodipodi:docname="undraw_upload_re_pasx.svg"
   inkscape:version="1.1.1 (3bf5ae0d25, 2021-09-20)"
   xmlns:inkscape="http://www.inkscape.org/namespaces/inkscape"
   xmlns:sodipodi="http://sodipodi.sourceforge.net/DTD/sodipodi-0.dtd"
   xmlns="http://www.w3.org/2000/svg"
   xmlns:svg="http://www.w3.org/2000/svg">
  <defs
     id="defs112" />
  <sodipodi:namedview
     id="namedview110"
     pagecolor="#ffffff"
     bordercolor="#666666"
     borderopacity="1.0"
     inkscape:pageshadow="2"
     inkscape:pageopacity="0.0"
     inkscape:pagecheckerboard="0"
     showgrid="false"
     inkscape:zoom="0.46797154"
     inkscape:cx="387.8441"
     inkscape:cy="336.55893"
     inkscape:window-width="1366"
     inkscape:window-height="713"
     inkscape:window-x="-8"
     inkscape:window-y="-8"
     inkscape:window-maximized="1"
     inkscape:current-layer="svg108" />
  <g
     id="g2204"
     transform="translate(12.562632,-17.024386)">
    <path
       d="M 451.83136,148.37765 A 12.13173,12.13173 0 0 0 444.38778,136.6075 L 213.71945,40.692777 a 12.0995,12.0995 0 0 0 -15.8202,6.520506 l -0.003,0.0086 -73.60372,177.011837 a 12.12136,12.12136 0 0 0 6.52917,15.82379 l 230.66827,95.91473 A 12.12137,12.12137 0 0 0 377.3133,329.4431 L 450.917,152.43127 a 12.01171,12.01171 0 0 0 0.91447,-4.05365 z"
       fill="#f2f2f2"
       id="path6" />
    <path
       d="M 364.67642,494.92223"
       transform="translate(-211.15157,-143.35743)"
       fill="#f2f2f2"
       id="path18" />
    <path
       d="M 621.5363,601.97358 H 389.40277 a 6.519295,6.519295 0 0 1 0,-13.03859 H 621.5363 a 6.5193,6.5193 0 0 1 0,13.03859 z"
       transform="translate(-211.15157,-143.35743)"
       fill="#e6e6e6"
       id="path36" />
    <g
       id="g1910"
       transform="translate(13.327655,-3.2987421)">
      <path
         d="m 594.7642,328.43312 h -82.40652 a 6.51929,6.51929 0 1 1 0,-13.03858 h 82.40652 a 6.51929,6.51929 0 1 1 0,13.03858 z"
         transform="translate(-211.15157,-143.35743)"
         fill="#e6e6e6"
         id="path22" />
      <path
         d="m 621.65628,350.43573 h -109.2986 a 6.51929,6.51929 0 1 1 0,-13.03858 h 109.2986 a 6.51929,6.51929 0 0 1 0,13.03858 z"
         transform="translate(-211.15157,-143.35743)"
         fill="#e6e6e6"
         id="path24" />
      <path
         d="m 772.628,379.48724 a 12.13173,12.13173 0 0 0 -6.71771,-12.199 L 541.46863,257.59115 a 12.0995,12.0995 0 0 0 -16.18578,5.55125 l -0.004,0.008 -84.18012,172.23358 a 12.12136,12.12136 0 0 0 5.55968,16.18989 l 224.44161,109.69709 a 12.12137,12.12137 0 0 0 16.1899,-5.55968 l 84.18011,-172.23357 a 12.01171,12.01171 0 0 0 1.15808,-3.99089 z"
         fill="#ffffff"
         id="path38"
         transform="translate(-211.15157,-143.35743)" />
      <path
         d="m 772.628,379.48724 a 12.13173,12.13173 0 0 0 -6.71771,-12.199 L 541.46863,257.59115 a 12.0995,12.0995 0 0 0 -16.18578,5.55125 l -0.004,0.008 -84.18012,172.23358 a 12.12136,12.12136 0 0 0 5.55968,16.18989 l 224.44161,109.69709 a 12.12137,12.12137 0 0 0 16.1899,-5.55968 l 84.18011,-172.23357 a 12.01171,12.01171 0 0 0 1.15808,-3.99089 z M 686.01043,555.0864 a 10.69317,10.69317 0 0 1 -14.28521,4.9056 L 447.2836,450.29492 a 10.69321,10.69321 0 0 1 -4.90557,-14.28521 l 84.18011,-172.23357 a 10.69317,10.69317 0 0 1 14.28518,-4.90559 l 224.44162,109.69709 a 10.69321,10.69321 0 0 1 4.90561,14.28519 z"
         transform="translate(-211.15157,-143.35743)"
         fill="#3f3d56"
         id="path40" />
      <path
         d="m 748.14785,387.3187 -58.78036,120.26536 a 3.369,3.369 0 0 1 -4.50563,1.549 h -1.1e-4 l -204.16,-99.78435 a 2.83892,2.83892 0 0 1 -0.41747,-0.24582 3.367,3.367 0 0 1 -1.13054,-4.26189 l 58.78038,-120.26542 a 3.369,3.369 0 0 1 4.50569,-1.54893 v 0 L 746.59984,382.811 a 3.369,3.369 0 0 1 1.549,4.50565 v 9e-5 z"
         transform="translate(-211.15157,-143.35743)"
         fill="#e6e6e6"
         id="path42" />
      <circle
         cx="357.75864"
         cy="208.2869"
         r="29.566681"
         fill="#44175b"
         id="circle44" />
      <path
         d="M 612.20158,474.21733 481.88833,410.526 a 2.95392,2.95392 0 0 1 -0.46807,-0.2766 L 595.2299,333.6167 a 4.80317,4.80317 0 0 1 7.51178,3.67142 l 6.34775,91.85777 0.30612,4.39658 z"
         transform="translate(-211.15157,-143.35743)"
         fill="#3f3d56"
         id="path46" />
      <polygon
         points="356.558,309.114 393.905,288.064 396.594,286.548 397.938,285.789 398.244,290.185 401.05,330.86 "
         opacity="0.2"
         style="isolation:isolate"
         id="polygon48" />
      <path
         d="m 684.75906,509.6802 -112.71026,-55.08776 37.34677,-21.05 2.68877,-1.51719 48.66773,-27.43325 c 3.19024,-1.7977 7.76143,0.22749 8.79816,3.667 a 5.71792,5.71792 0 0 1 0.16006,0.71138 z"
         transform="translate(-211.15157,-143.35743)"
         fill="#3f3d56"
         id="path50" />
    </g>
    <polygon
       points="125.844,376.82 138.103,376.819 143.936,329.531 125.841,329.532 "
       fill="#ffb8b8"
       id="polygon52" />
    <path
       d="m 333.86788,516.1748 24.1438,-10e-4 h 10e-4 a 15.38605,15.38605 0 0 1 15.38647,15.38623 v 0.5 l -39.53051,10e-4 z"
       transform="translate(-211.15157,-143.35743)"
       fill="#2f2e41"
       id="path54" />
    <polygon
       points="30.551,369.014 43.253,371.498 58.881,323.688 40.135,320.021 "
       fill="#ffb8b8"
       id="polygon56" />
    <path
       d="m 239.27428,507.59042 25.01436,4.89306 0.001,2e-4 a 16.24294,16.24294 0 0 1 12.82227,19.05981 l -0.10135,0.518 -40.95584,-8.01149 z"
       transform="translate(-211.15157,-143.35743)"
       fill="#2f2e41"
       id="path58" />
    <g
       id="g2170"
       transform="rotate(-19.782822,279.2615,813.42445)">
      <path
         d="m 594.7642,328.43312 h -82.40652 a 6.51929,6.51929 0 1 1 0,-13.03858 h 82.40652 a 6.51929,6.51929 0 1 1 0,13.03858 z"
         transform="translate(-211.15157,-143.35743)"
         fill="#e6e6e6"
         id="path2152" />
      <path
         d="m 621.65628,350.43573 h -109.2986 a 6.51929,6.51929 0 1 1 0,-13.03858 h 109.2986 a 6.51929,6.51929 0 0 1 0,13.03858 z"
         transform="translate(-211.15157,-143.35743)"
         fill="#e6e6e6"
         id="path2154" />
      <path
         d="m 772.628,379.48724 a 12.13173,12.13173 0 0 0 -6.71771,-12.199 L 541.46863,257.59115 a 12.0995,12.0995 0 0 0 -16.18578,5.55125 l -0.004,0.008 -84.18012,172.23358 a 12.12136,12.12136 0 0 0 5.55968,16.18989 l 224.44161,109.69709 a 12.12137,12.12137 0 0 0 16.1899,-5.55968 l 84.18011,-172.23357 a 12.01171,12.01171 0 0 0 1.15808,-3.99089 z"
         fill="#ffffff"
         id="path2156"
         transform="translate(-211.15157,-143.35743)" />
      <path
         d="m 772.628,379.48724 a 12.13173,12.13173 0 0 0 -6.71771,-12.199 L 541.46863,257.59115 a 12.0995,12.0995 0 0 0 -16.18578,5.55125 l -0.004,0.008 -84.18012,172.23358 a 12.12136,12.12136 0 0 0 5.55968,16.18989 l 224.44161,109.69709 a 12.12137,12.12137 0 0 0 16.1899,-5.55968 l 84.18011,-172.23357 a 12.01171,12.01171 0 0 0 1.15808,-3.99089 z M 686.01043,555.0864 a 10.69317,10.69317 0 0 1 -14.28521,4.9056 L 447.2836,450.29492 a 10.69321,10.69321 0 0 1 -4.90557,-14.28521 l 84.18011,-172.23357 a 10.69317,10.69317 0 0 1 14.28518,-4.90559 l 224.44162,109.69709 a 10.69321,10.69321 0 0 1 4.90561,14.28519 z"
         transform="translate(-211.15157,-143.35743)"
         fill="#3f3d56"
         id="path2158" />
      <path
         d="m 748.14785,387.3187 -58.78036,120.26536 a 3.369,3.369 0 0 1 -4.50563,1.549 h -1.1e-4 l -204.16,-99.78435 a 2.83892,2.83892 0 0 1 -0.41747,-0.24582 3.367,3.367 0 0 1 -1.13054,-4.26189 l 58.78038,-120.26542 a 3.369,3.369 0 0 1 4.50569,-1.54893 v 0 L 746.59984,382.811 a 3.369,3.369 0 0 1 1.549,4.50565 v 9e-5 z"
         transform="translate(-211.15157,-143.35743)"
         fill="#e6e6e6"
         id="path2160" />
      <circle
         cx="357.75864"
         cy="208.2869"
         r="29.566681"
         fill="#44175b"
         id="circle2162" />
      <path
         d="M 612.20158,474.21733 481.88833,410.526 a 2.95392,2.95392 0 0 1 -0.46807,-0.2766 L 595.2299,333.6167 a 4.80317,4.80317 0 0 1 7.51178,3.67142 l 6.34775,91.85777 0.30612,4.39658 z"
         transform="translate(-211.15157,-143.35743)"
         fill="#3f3d56"
         id="path2164" />
      <polygon
         points="396.594,286.548 397.938,285.789 398.244,290.185 401.05,330.86 356.558,309.114 393.905,288.064 "
         opacity="0.2"
         style="isolation:isolate"
         id="polygon2166" />
      <path
         d="m 684.75906,509.6802 -112.71026,-55.08776 37.34677,-21.05 2.68877,-1.51719 48.66773,-27.43325 c 3.19024,-1.7977 7.76143,0.22749 8.79816,3.667 a 5.71792,5.71792 0 0 1 0.16006,0.71138 z"
         transform="translate(-211.15157,-143.35743)"
         fill="#3f3d56"
         id="path2168" />
    </g>
    <path
       d="m 737.61617,737.64257 h -493.4646 a 33.03734,33.03734 0 0 1 -33,-33 v -271 a 33.03734,33.03734 0 0 1 33,-33 h 60.50269 a 32.92486,32.92486 0 0 1 22.19507,8.57959 l 65.61157,46.85107 a 23.18228,23.18228 0 0 0 15.65869,6.06934 h 332.56055 a 33.00029,33.00029 0 0 1 32.99658,33.48243 l -3.064,209.5 a 33.13847,33.13847 0 0 1 -32.99655,32.51757 z"
       transform="translate(-211.15157,-143.35743)"
       fill="#ffffff"
       id="path72" />
    <path
       d="M 733.23214,721.64257 H 247.071 a 15.93751,15.93751 0 0 1 -15.91944,-15.9195 V 430.292 a 15.93754,15.93754 0 0 1 15.91944,-15.91948 14.09636,14.09636 0 0 1 14.08056,14.08056 v 258.27 a 14.9364,14.9364 0 0 0 14.91944,14.91943 h 455.5193 a 10.12538,10.12538 0 0 1 9.91528,7.5874 9.72,9.72 0 0 1 -4.30689,11.18457 7.59512,7.59512 0 0 1 -3.96655,1.22809 z"
       transform="translate(-211.15157,-143.35743)"
       fill="#f2f2f2"
       id="path74" />
    <path
       d="m 494.57588,589.36994 -1.28,-1.28 a 1.37,1.37 0 0 1 -0.0636,-1.9364 q 0.0307,-0.0329 0.0636,-0.0636 l 11.23,-11.24 a 1.37,1.37 0 0 1 1.93644,-0.0636 q 0.0328,0.0308 0.0636,0.0636 l 11.23,11.23 a 1.39,1.39 0 0 1 0.0345,1.96546 l -0.0345,0.0345 -1.28,1.28 a 1.39,1.39 0 0 1 -1.96546,0.0345 l -0.0345,-0.0345 -6.64,-7 v 16.61 a 1.37994,1.37994 0 0 1 -1.36993,1.38995 l -0.0101,6e-5 h -1.85 a 1.39,1.39 0 0 1 -1.39,-1.39 v 0 V 582.38 l -6.64,7 a 1.39,1.39 0 0 1 -1.9656,0.0247 z"
       transform="translate(-211.15157,-143.35743)"
       fill="#44175b"
       id="path76" />
    <path
       d="m 505.50591,564.64 a 22.79,22.79 0 1 1 -22.79,22.79 v 0 a 22.81,22.81 0 0 1 22.79,-22.79 m 0,-3 a 25.79,25.79 0 1 0 25.79,25.79 v 0 a 25.79,25.79 0 0 0 -25.79,-25.79 z"
       transform="translate(-211.15157,-143.35743)"
       fill="#3f3d56"
       id="path78" />
    <path
       d="m 737.61617,737.64257 h -493.4646 a 33.03734,33.03734 0 0 1 -33,-33 v -271 a 33.03734,33.03734 0 0 1 33,-33 h 60.50269 a 32.92486,32.92486 0 0 1 22.19507,8.57959 l 65.61157,46.85107 a 23.18228,23.18228 0 0 0 15.65869,6.06934 h 332.56055 a 33.00029,33.00029 0 0 1 32.99658,33.48243 l -3.064,209.5 a 33.13847,33.13847 0 0 1 -32.99655,32.51757 z m -493.4646,-335 a 31.03529,31.03529 0 0 0 -31,31 v 271 a 31.03529,31.03529 0 0 0 31,31 h 493.4646 a 31.12957,31.12957 0 0 0 30.99659,-30.54688 l 3.06421,-209.5 A 31,31 0 0 0 740.68014,464.14257 H 408.11959 a 25.17915,25.17915 0 0 1 -16.96216,-6.55127 l -65.61132,-46.85108 a 30.93108,30.93108 0 0 0 -20.89185,-8.09765 z"
       transform="translate(-211.15157,-143.35743)"
       fill="#3f3d56"
       id="path80" />
  </g>
</svg>
