<?xml version="1.0" encoding="utf-8"?>
<!-- Generator: Adobe Illustrator 28.0.0, SVG Export Plug-In . SVG Version: 6.00 Build 0)  -->
<svg version="1.1" id="Layer_1" xmlns="http://www.w3.org/2000/svg" xmlns:xlink="http://www.w3.org/1999/xlink" x="0px" y="0px"
	 viewBox="0 0 55.1 57.2" style="enable-background:new 0 0 55.1 57.2;" xml:space="preserve">
<style type="text/css">
	.st0{fill:#FFFFFF;}
	.st1{fill:none;stroke:#FFFFFF;stroke-width:1.4699;stroke-linecap:round;stroke-miterlimit:10;}
	.st2{fill:#EE7C3E;}
</style>
<g>
	<g>
		<g>
			<path class="st0" d="M33,45.6h-4.3c-0.7-0.7-1.4-2-2.1-3.8l-2.4-6.4h-8.5L13.6,42c-0.4,1.1-0.5,2.1-0.5,2.8c0,0.2,0,0.5,0.1,0.8
				H9.9c0-0.2,0-0.4,0-0.7c0-0.8,0.2-1.8,0.6-3l6.8-19.4c0.5-1.4,0.7-2.4,0.7-3.2c0-0.4-0.1-0.8-0.2-1.2h3.4
				c0.8,0.5,1.7,1.9,2.5,4.1l7,19.2C31.3,43.4,32.1,44.8,33,45.6z M23.5,32.9l-3.6-10l-3.5,10H23.5z"/>
			<path class="st0" d="M36.2,22c-0.6,0-1.1-0.2-1.6-0.6c-0.4-0.4-0.6-0.9-0.6-1.5c0-0.6,0.2-1.1,0.6-1.5c0.4-0.4,0.9-0.6,1.6-0.6
				c0.6,0,1.1,0.2,1.5,0.6c0.4,0.4,0.6,0.9,0.6,1.5c0,0.6-0.2,1.1-0.7,1.5C37.3,21.8,36.8,22,36.2,22z M34.4,41.2V25.4H38v15.7
				c0,1.7,0.3,3.2,1,4.5h-3.6C34.7,44.9,34.4,43.4,34.4,41.2z"/>
		</g>
	</g>
	<path class="st1" d="M50,21.3v25.1c0,5.6-4.5,10.1-10.1,10.1h-29C5.3,56.5,0.7,52,0.7,46.4V17.1C0.7,11.5,5.3,7,10.9,7h22.8"/>
	<path class="st2" d="M44.5,25.7c-0.6-5.9-4.2-10.4-10.6-13c6.2-2.6,9.8-6.9,10.6-12.8c0.7,5.8,4.4,10.1,10.6,12.8
		C48.7,15.4,45.1,19.8,44.5,25.7L44.5,25.7z"/>
</g>
</svg>
