<?xml version="1.0" encoding="utf-8"?>
<!-- Generator: Adobe Illustrator 28.0.0, SVG Export Plug-In . SVG Version: 6.00 Build 0)  -->
<svg version="1.1" id="Layer_1" xmlns="http://www.w3.org/2000/svg" xmlns:xlink="http://www.w3.org/1999/xlink" x="0px" y="0px"
	 viewBox="0 0 31.5 31.5" style="enable-background:new 0 0 31.5 31.5;" xml:space="preserve">
<style type="text/css">
	.st0{fill:#FFFFFF;}
</style>
<g>
	<path class="st0" d="M30.7,4.5c-0.6-0.4-1.4-0.4-2,0.1c-3.3,2.6-5.9,6.7-7.6,9.8c-1.5-0.3-2.7-1-3.5-2.1c-1-1.4-1.3-3.4-0.9-5.6
		c0.4-2,0.1-3.8-0.8-4.9c-0.7-1-1.9-1.6-3.3-1.7c-3-0.3-5.9,0.9-8.2,3.3c-3.3,3.4-4.9,8.9-4.2,14.1c0.7,5.4,4.1,10,8.9,12.4
		c2.3,1.2,4.8,1.7,7.4,1.7c2.9,0,5.8-0.8,8.6-2.3c3.6-2,5.8-5.9,5.4-9.5c-0.2-2.2-1.4-3.8-3.2-4.6c1.8-2.5,3.5-5.6,4.3-8.7
		C31.7,5.6,31.4,4.9,30.7,4.5L30.7,4.5z M16.4,22.9c0-1-0.1-1.9,0.4-2.6c0.4-0.6,1.1-0.9,1.9-1c1-0.1,2,0.3,2.7,1
		c0.8,0.9,1.1,1.9,0.7,2.9c-0.5,1.5-2.2,2.9-3.9,3.2h0c-0.8,0.2-1.7,0.2-2.6-0.1C16.5,25.4,16.4,24.1,16.4,22.9L16.4,22.9z
		 M22.1,19.6c-0.5-0.5-1.2-0.9-1.9-1.1c0.2-0.4,0.4-0.9,0.7-1.5c1,0.3,1.8,0.9,2.4,1.4C22.8,18.9,22.4,19.3,22.1,19.6
		C22.1,19.6,22.1,19.6,22.1,19.6L22.1,19.6z M29.4,19.9c0.3,2.6-1.1,6.4-4.9,8.5c-4.8,2.7-10.2,2.9-14.9,0.5
		C5,26.6,1.9,22.3,1.2,17.2c-0.7-4.8,0.9-10,3.9-13.2c1.5-1.5,3.9-3.3,7.4-3c1.2,0.1,2,0.5,2.6,1.3c0.7,0.9,0.9,2.4,0.6,4.1
		c-0.5,2.5-0.1,4.8,1.1,6.4c0.9,1.2,2.2,2.1,3.8,2.4c-0.7,1.3-1.2,2.4-1.4,2.9c-0.2,0-0.3,0-0.5,0c-1.1,0.1-2.1,0.6-2.7,1.4
		c-0.7,1-0.6,2.1-0.6,3.2c0.1,1.5,0,2.5-1.1,3.1c-0.3,0.1-0.3,0.5-0.2,0.7c0.2,0.4,0.7,0.5,1,0.6l0.1,0c0.6,0.2,1.2,0.2,1.8,0.2
		c0.5,0,0.9,0,1.4-0.1c2.1-0.4,4.1-2,4.7-3.9c0.3-1,0.2-2.1-0.3-3c0.8-0.8,2.2-2.4,3.8-4.5C28.2,16.6,29.2,18,29.4,19.9L29.4,19.9z
		 M30.5,6.1c-1,4.3-4.2,8.7-6.5,11.4c-0.7-0.6-1.6-1.2-2.6-1.5c1.6-3.1,4.4-7.8,8-10.6c0.4-0.3,0.7-0.1,0.8,0
		C30.3,5.4,30.6,5.7,30.5,6.1L30.5,6.1z"/>
	<path class="st0" d="M9.5,18.6C7.6,18.6,6,20.2,6,22c0,1.9,1.5,3.4,3.4,3.4s3.4-1.5,3.4-3.4C12.9,20.2,11.3,18.6,9.5,18.6z
		 M9.5,24.4c-1.3,0-2.4-1.1-2.4-2.4s1.1-2.4,2.4-2.4s2.4,1.1,2.4,2.4S10.8,24.4,9.5,24.4z"/>
	<path class="st0" d="M9.3,14.3c0-1.7-1.4-3.2-3.2-3.2S3,12.6,3,14.3s1.4,3.2,3.2,3.2S9.3,16,9.3,14.3z M4,14.3
		c0-1.2,0.9-2.1,2.1-2.1s2.1,0.9,2.1,2.1s-0.9,2.1-2.1,2.1S4,15.5,4,14.3z"/>
	<path class="st0" d="M9.2,10c1.6,0,2.9-1.3,2.9-2.9s-1.3-2.9-2.9-2.9S6.3,5.5,6.3,7.1S7.6,10,9.2,10z M9.2,5.3c1,0,1.8,0.8,1.8,1.8
		s-0.8,1.8-1.8,1.8S7.4,8.1,7.4,7.1S8.2,5.3,9.2,5.3z"/>
</g>
</svg>
