<?xml version="1.0" encoding="utf-8"?>
<!-- Generator: Adobe Illustrator 28.0.0, SVG Export Plug-In . SVG Version: 6.00 Build 0)  -->
<svg version="1.1" id="Layer_1" xmlns="http://www.w3.org/2000/svg" xmlns:xlink="http://www.w3.org/1999/xlink" x="0px" y="0px"
	 viewBox="0 0 44.2 31.7" style="enable-background:new 0 0 44.2 31.7;" xml:space="preserve">
<style type="text/css">
	.st0{fill:none;stroke:#FFFFFF;stroke-width:1.049;stroke-miterlimit:10;}
</style>
<g>
	<path class="st0" d="M36.1,31.2H2.9c-1.3,0-2.4-1.1-2.4-2.4V8.4C0.5,7.1,1.6,6,2.9,6h33.2c1.3,0,2.4,1.1,2.4,2.4v20.4
		C38.6,30.1,37.5,31.2,36.1,31.2z"/>
	<path class="st0" d="M3.1,5.7c0-1.3,1.1-2.4,2.4-2.4h33.2c1.3,0,2.4,1.1,2.4,2.4v20.4c0,1.3-1.1,2.4-2.4,2.4"/>
	<path class="st0" d="M5.6,2.9c0-1.3,1.1-2.4,2.4-2.4h33.2c1.3,0,2.4,1.1,2.4,2.4v20.4c0,1.3-1.1,2.4-2.4,2.4"/>
</g>
</svg>
