<?xml version="1.0" encoding="utf-8"?>
<!-- Generator: Adobe Illustrator 28.0.0, SVG Export Plug-In . SVG Version: 6.00 Build 0)  -->
<svg version="1.1" id="Layer_1" xmlns="http://www.w3.org/2000/svg" xmlns:xlink="http://www.w3.org/1999/xlink" x="0px" y="0px"
	 viewBox="0 0 20 19.2" style="enable-background:new 0 0 20 19.2;" xml:space="preserve">
<style type="text/css">
	.st0{fill:#4F4F59;}
	.st1{fill:none;stroke:#4F4F59;stroke-width:0.8055;stroke-miterlimit:10;}
</style>
<g>
	<path class="st0" d="M8.3,8.7H0.9c-0.3,0-0.5-0.2-0.5-0.5V0.8c0-0.3,0.2-0.5,0.5-0.5h7.4c0.3,0,0.5,0.2,0.5,0.5v7.4
		C8.8,8.5,8.6,8.7,8.3,8.7z"/>
	<circle class="st1" cx="15.4" cy="4.5" r="4.1"/>
	<path class="st1" d="M4.3,11.6c0.1-0.2,0.4-0.2,0.5,0l1.9,3.4l1.9,3.4c0.1,0.2,0,0.4-0.3,0.4H4.6H0.7c-0.2,0-0.4-0.2-0.3-0.4
		l1.9-3.4L4.3,11.6z"/>
	<path class="st0" d="M17.3,11h-3.8c-0.3,0-0.5,0.1-0.7,0.4L11,14.6c-0.1,0.2-0.1,0.5,0,0.8l1.9,3.3c0.1,0.2,0.4,0.4,0.7,0.4h3.8
		c0.3,0,0.5-0.1,0.7-0.4l1.9-3.3c0.1-0.2,0.1-0.5,0-0.8L18,11.3C17.8,11.1,17.6,11,17.3,11z"/>
</g>
</svg>
