<?xml version="1.0" encoding="utf-8"?>
<!-- Generator: Adobe Illustrator 28.0.0, SVG Export Plug-In . SVG Version: 6.00 Build 0)  -->
<svg version="1.1" id="Layer_1" xmlns="http://www.w3.org/2000/svg" xmlns:xlink="http://www.w3.org/1999/xlink" x="0px" y="0px"
	 viewBox="0 0 29 22.1" style="enable-background:new 0 0 29 22.1;" xml:space="preserve">
<style type="text/css">
	.st0{fill:none;stroke:#FFFFFF;stroke-width:1.2063;stroke-miterlimit:10;}
	.st1{fill:#FFFFFF;}
</style>
<g>
	<path class="st0" d="M23.1,21.5H1.5c-0.5,0-0.9-0.4-0.9-0.9V5.7c0-0.5,0.4-0.9,0.9-0.9h21.6c0.5,0,0.9,0.4,0.9,0.9v14.8
		C24,21.1,23.6,21.5,23.1,21.5z"/>
	<path class="st0" d="M5,4.9V1.5C5,1,5.4,0.6,5.8,0.6h21.6c0.5,0,0.9,0.4,0.9,0.9v14.8c0,0.5-0.4,0.9-0.9,0.9H24"/>
	<path class="st1" d="M15.6,17.7l-6.9-5.9c-0.4-0.3-1-0.3-1.4,0l-6.7,5.6v3.7h23.1l0.2-3.9l-6.4-4.8c-0.4-0.3-1-0.3-1.4,0l-3.4,2.8"
		/>
	<circle class="st1" cx="19.8" cy="8.7" r="1.4"/>
</g>
</svg>
