<?xml version="1.0" encoding="utf-8"?>
<!-- Generator: Adobe Illustrator 28.0.0, SVG Export Plug-In . SVG Version: 6.00 Build 0)  -->
<svg version="1.1" id="Layer_1" xmlns="http://www.w3.org/2000/svg" xmlns:xlink="http://www.w3.org/1999/xlink" x="0px" y="0px"
	 viewBox="0 0 20.9 15.9" style="enable-background:new 0 0 20.9 15.9;" xml:space="preserve">
<style type="text/css">
	.st0{fill:none;stroke:#4F4F59;stroke-width:0.8055;stroke-linecap:round;stroke-miterlimit:10;}
	.st1{fill:none;stroke:#4F4F59;stroke-width:0.8055;stroke-miterlimit:10;}
	.st2{fill:#4F4F59;}
	.st3{fill:#FFFFFF;}
</style>
<g>
	<path class="st0" d="M16.7,15.5H1c-0.4,0-0.6-0.3-0.6-0.6V4.1c0-0.4,0.3-0.6,0.6-0.6h15.7c0.4,0,0.6,0.3,0.6,0.6v10.8
		C17.4,15.3,17.1,15.5,16.7,15.5z"/>
	<path class="st1" d="M3.6,3.5V1c0-0.4,0.3-0.6,0.6-0.6h15.7c0.4,0,0.6,0.3,0.6,0.6v10.8c0,0.4-0.3,0.6-0.6,0.6h-2.5"/>
	<path class="st2" d="M11.3,12.8l-5-4.3c-0.3-0.2-0.7-0.2-1,0l-4.8,4.1v2.7h16.8l0.1-2.8L12.7,9c-0.3-0.3-0.7-0.2-1,0l-2.5,2"/>
	<circle class="st3" cx="14.3" cy="6.3" r="1"/>
</g>
</svg>
