<?xml version="1.0" encoding="utf-8"?>
<!-- Generator: Adobe Illustrator 28.0.0, SVG Export Plug-In . SVG Version: 6.00 Build 0)  -->
<svg version="1.1" id="Layer_1" xmlns="http://www.w3.org/2000/svg" xmlns:xlink="http://www.w3.org/1999/xlink" x="0px" y="0px"
	 viewBox="0 0 18.4 18.4" style="enable-background:new 0 0 18.4 18.4;" xml:space="preserve">
<style type="text/css">
	.st0{fill:#4F4F59;stroke:#4F4F59;stroke-width:0.2014;stroke-miterlimit:10;}
</style>
<g>
	<path class="st0" d="M3,1.4h12.3v-1c0-0.2,0.1-0.3,0.3-0.3H18c0.2,0,0.3,0.1,0.3,0.3v2.4C18.3,2.9,18.2,3,18,3h-1v12.3h1
		c0.2,0,0.3,0.1,0.3,0.3V18c0,0.2-0.1,0.3-0.3,0.3h-2.4c-0.2,0-0.3-0.1-0.3-0.3v-1H3v1c0,0.2-0.1,0.3-0.3,0.3H0.4
		c-0.2,0-0.3-0.1-0.3-0.3v-2.4c0-0.2,0.1-0.3,0.3-0.3h1V3h-1C0.2,3,0.1,2.9,0.1,2.8V0.4c0-0.2,0.1-0.3,0.3-0.3h2.4
		C2.9,0.1,3,0.2,3,0.4L3,1.4z M4.8,10.7c0.9,0.1,1.8,0.3,2.7,0.6c0.9,0.3,1.8,0.6,2.6,1.1l2.2-2.2c-0.4-0.8-0.8-1.7-1.1-2.6
		c-0.3-0.9-0.5-1.8-0.6-2.7L5,4.6l2.8,2.8l1.5,0.1c0.1,0,0.3,0.1,0.3,0.3l0.1,1.6l0,0c0,0.2-0.2,0.3-0.3,0.3L7.8,9.6
		c-0.1,0-0.3-0.1-0.3-0.3L7.4,7.8L4.6,5L4.8,10.7z M8.1,9l1,0.1L9,8.1L8,8L8.1,9z M13.4,9.4l1.7,1.7c0.1,0.1,0.1,0.3,0,0.4l-3.6,3.6
		c-0.1,0.1-0.3,0.1-0.4,0l-1.7-1.7c-0.1-0.1-0.1-0.3,0-0.4l0.3-0.3c-0.8-0.4-1.6-0.7-2.4-0.9c-0.9-0.3-1.9-0.5-2.8-0.6
		c-0.1,0-0.3-0.1-0.3-0.3L4,4.3C4,4.1,4.1,4,4.3,4l6.7,0.2c0.1,0,0.3,0.1,0.3,0.3c0.1,1,0.3,1.9,0.6,2.8c0.2,0.8,0.6,1.6,0.9,2.4
		L13,9.4C13.1,9.3,13.3,9.3,13.4,9.4z M3,2.8C3,2.9,2.9,3,2.8,3H2v12.3h0.8c0.2,0,0.3,0.1,0.3,0.3v0.8h12.3v-0.8
		c0-0.2,0.1-0.3,0.3-0.3h0.8V3h-0.8c-0.2,0-0.3-0.1-0.3-0.3V2H3V2.8z M2.5,15.9H0.7v1.8h1.8V15.9z M2.5,0.7H0.7v1.8h1.8V0.7z
		 M17.7,0.7h-1.8v1.8h1.8V0.7z M17.7,15.9h-1.8v1.8h1.8V15.9z"/>
</g>
</svg>
