<?xml version="1.0" encoding="utf-8"?>
<!-- Generator: Adobe Illustrator 28.0.0, SVG Export Plug-In . SVG Version: 6.00 Build 0)  -->
<svg version="1.1" id="Layer_1" xmlns="http://www.w3.org/2000/svg" xmlns:xlink="http://www.w3.org/1999/xlink" x="0px" y="0px"
	 viewBox="0 0 52.2 40.2" style="enable-background:new 0 0 52.2 40.2;" xml:space="preserve">
<style type="text/css">
	.st0{fill:#FFFFFF;}
	.st1{fill:none;stroke:#FFFFFF;stroke-width:2.6934;stroke-linecap:round;stroke-miterlimit:10;}
</style>
<g>
	<path class="st0" d="M51.3,7.5c-4.6-1.3-5.4-2.1-6.6-6.6C44.6,0.3,44.1,0,43.6,0s-1,0.3-1.1,0.8c-1.3,4.6-2.1,5.4-6.6,6.6
		C35.3,7.6,35,8.1,35,8.6c0,0.5,0.3,1,0.8,1.1c4.6,1.3,5.4,2.1,6.6,6.6c0.1,0.5,0.6,0.8,1.1,0.8s1-0.3,1.1-0.8
		c1.3-4.6,2.1-5.4,6.6-6.6c0.5-0.1,0.8-0.6,0.8-1.1C52.2,8.1,51.8,7.6,51.3,7.5z M43.6,12.5c-0.9-1.9-2-3-3.9-3.9
		c1.9-0.9,3-2,3.9-3.9c0.9,1.9,2,3,3.9,3.9C45.6,9.5,44.5,10.6,43.6,12.5z"/>
	<g>
		<path class="st1" d="M40.8,20.8v14.4c0,2-1.6,3.7-3.7,3.7H5c-2,0-3.7-1.6-3.7-3.7V10c0-2,1.6-3.7,3.7-3.7h16.7h9"/>
		<path class="st1" d="M27.8,20.7c1.4,0.8,1.4,2.8,0,3.6L23,27.1l-4.9,2.8c-1.4,0.8-3.1-0.2-3.1-1.8v-5.6v-5.6
			c0-1.6,1.7-2.6,3.1-1.8l4.9,2.8L27.8,20.7z"/>
	</g>
</g>
</svg>
