<?xml version="1.0" encoding="utf-8"?>
<!-- Generator: Adobe Illustrator 28.0.0, SVG Export Plug-In . SVG Version: 6.00 Build 0)  -->
<svg version="1.1" id="Layer_1" xmlns="http://www.w3.org/2000/svg" xmlns:xlink="http://www.w3.org/1999/xlink" x="0px" y="0px"
	 viewBox="0 0 20.9 16" style="enable-background:new 0 0 20.9 16;" xml:space="preserve">
<style type="text/css">
	
		.st0{fill-rule:evenodd;clip-rule:evenodd;fill:none;stroke:#4F4F59;stroke-width:0.8055;stroke-linecap:round;stroke-miterlimit:10;}
	.st1{fill-rule:evenodd;clip-rule:evenodd;fill:#4F4F59;}
</style>
<g>
	<path class="st0" d="M16.4,15.6h-15c-0.5,0-0.9-0.4-0.9-0.9V4.5c0-0.5,0.4-0.9,0.9-0.9h15c0.5,0,0.9,0.4,0.9,0.9v10.2
		C17.3,15.2,16.9,15.6,16.4,15.6z"/>
	<path class="st0" d="M17.3,12.5h2.3c0.5,0,0.9-0.4,0.9-0.9V1.3c0-0.5-0.4-0.9-0.9-0.9H4.5C4,0.4,3.6,0.8,3.6,1.3v2.2"/>
	<path class="st1" d="M11.4,9.1c0.3,0.2,0.3,0.7,0,0.9l-2,1.2l-2,1.2c-0.3,0.2-0.8,0-0.8-0.4V9.5V7.2c0-0.4,0.4-0.6,0.8-0.4l2,1.2
		L11.4,9.1z"/>
</g>
</svg>
