<?xml version="1.0" encoding="UTF-8" standalone="no"?>
<!-- Generator: Adobe Illustrator 28.0.0, SVG Export Plug-In . SVG Version: 6.00 Build 0)  -->

<svg
   version="1.1"
   id="Layer_1"
   x="0px"
   y="0px"
   viewBox="0 0 200 200"
   xml:space="preserve"
   sodipodi:docname="Voice ai icon.svg"
   width="200"
   height="200"
   inkscape:version="1.4 (86a8ad7, 2024-10-11)"
   xmlns:inkscape="http://www.inkscape.org/namespaces/inkscape"
   xmlns:sodipodi="http://sodipodi.sourceforge.net/DTD/sodipodi-0.dtd"
   xmlns="http://www.w3.org/2000/svg"
   xmlns:svg="http://www.w3.org/2000/svg"><defs
   id="defs7" /><sodipodi:namedview
   id="namedview7"
   pagecolor="#ffffff"
   bordercolor="#000000"
   borderopacity="0.25"
   inkscape:showpageshadow="2"
   inkscape:pageopacity="0.0"
   inkscape:pagecheckerboard="0"
   inkscape:deskcolor="#d1d1d1"
   inkscape:zoom="0.5"
   inkscape:cx="-156"
   inkscape:cy="479"
   inkscape:window-width="1920"
   inkscape:window-height="1009"
   inkscape:window-x="-8"
   inkscape:window-y="-8"
   inkscape:window-maximized="1"
   inkscape:current-layer="Layer_1" />
<style
   type="text/css"
   id="style1">
	.st0{fill:#FFFFFF;}
</style>
<g
   id="g7"
   transform="matrix(3.7381071,0,0,3.7381071,-1917.2639,-2422.1009)"
   style="fill:#ffffff">
	<path
   class="st0"
   d="m 518.2,690.8 h 9.3 l 5.8,6.3 c 0.3,0.3 0.6,0.4 1,0.4 0.4,0 0.7,-0.2 1,-0.4 l 5.8,-6.3 h 9.3 c 3,0 5.4,-2.4 5.4,-5.4 v -9.6 c 0,-0.7 -0.6,-1.3 -1.3,-1.3 -0.7,0 -1.3,0.6 -1.3,1.3 v 9.6 c 0,1.5 -1.2,2.7 -2.7,2.7 h -9.8 c -0.4,0 -0.7,0.2 -1,0.4 l -5.3,5.6 -5.3,-5.6 c -0.3,-0.3 -0.6,-0.4 -1,-0.4 h -9.8 c -1.5,0 -2.7,-1.2 -2.7,-2.7 V 664 c 0,-1.5 1.2,-2.7 2.7,-2.7 H 544 c 0.7,0 1.3,-0.6 1.3,-1.3 0,-0.7 -0.6,-1.3 -1.3,-1.3 h -25.7 c -3,0 -5.4,2.4 -5.4,5.4 v 21.4 c -0.1,2.9 2.3,5.3 5.3,5.3 z"
   id="path1"
   style="fill:#ffffff" />
	<path
   class="st0"
   d="m 565.4,660.7 c -5.4,-1.5 -6.3,-2.4 -7.8,-7.8 -0.2,-0.6 -0.7,-1 -1.3,-1 -0.6,0 -1.1,0.4 -1.3,1 -1.5,5.4 -2.4,6.3 -7.8,7.8 -0.6,0.2 -1,0.7 -1,1.3 0,0.6 0.4,1.1 1,1.3 5.4,1.5 6.3,2.4 7.8,7.8 0.2,0.6 0.7,1 1.3,1 0.6,0 1.1,-0.4 1.3,-1 1.5,-5.4 2.4,-6.3 7.8,-7.8 0.6,-0.2 1,-0.7 1,-1.3 0,-0.6 -0.4,-1.1 -1,-1.3 z m -9,5.9 c -1,-2.3 -2.3,-3.6 -4.6,-4.6 2.3,-1 3.6,-2.3 4.6,-4.6 1,2.3 2.3,3.6 4.6,4.6 -2.3,1.1 -3.6,2.4 -4.6,4.6 z"
   id="path2"
   style="fill:#ffffff" />
	<path
   class="st0"
   d="m 522.2,671.4 v 6.7 c 0,0.7 0.6,1.3 1.3,1.3 0.7,0 1.3,-0.6 1.3,-1.3 v -6.7 c 0,-0.7 -0.6,-1.3 -1.3,-1.3 -0.7,0 -1.3,0.6 -1.3,1.3 z"
   id="path3"
   style="fill:#ffffff" />
	<path
   class="st0"
   d="m 527.6,668.1 v 13.4 c 0,0.7 0.6,1.3 1.3,1.3 0.7,0 1.3,-0.6 1.3,-1.3 v -13.4 c 0,-0.7 -0.6,-1.3 -1.3,-1.3 -0.7,0 -1.3,0.5 -1.3,1.3 z"
   id="path4"
   style="fill:#ffffff" />
	<path
   class="st0"
   d="m 532.9,671.4 v 6.7 c 0,0.7 0.6,1.3 1.3,1.3 0.7,0 1.3,-0.6 1.3,-1.3 v -6.7 c 0,-0.7 -0.6,-1.3 -1.3,-1.3 -0.7,0 -1.3,0.6 -1.3,1.3 z"
   id="path5"
   style="fill:#ffffff" />
	<path
   class="st0"
   d="m 538.3,668.1 v 13.4 c 0,0.7 0.6,1.3 1.3,1.3 0.7,0 1.3,-0.6 1.3,-1.3 v -13.4 c 0,-0.7 -0.6,-1.3 -1.3,-1.3 -0.7,0 -1.3,0.5 -1.3,1.3 z"
   id="path6"
   style="fill:#ffffff" />
	<path
   class="st0"
   d="m 543.6,671.4 v 6.7 c 0,0.7 0.6,1.3 1.3,1.3 0.7,0 1.3,-0.6 1.3,-1.3 v -6.7 c 0,-0.7 -0.6,-1.3 -1.3,-1.3 -0.7,0 -1.3,0.6 -1.3,1.3 z"
   id="path7"
   style="fill:#ffffff" />
</g>
</svg>
